<?xml version="1.0" standalone="no"?>
<!DOCTYPE svg PUBLIC "-//W3C//DTD SVG 20010904//EN"
 "http://www.w3.org/TR/2001/REC-SVG-20010904/DTD/svg10.dtd">
<svg version="1.0" xmlns="http://www.w3.org/2000/svg"
 width="1024.000000pt" height="1024.000000pt" viewBox="0 0 1024.000000 1024.000000"
 preserveAspectRatio="xMidYMid meet">
<metadata>
Created by potrace 1.16, written by Peter Selinger 2001-2019
</metadata>
<g transform="translate(0.000000,1024.000000) scale(0.100000,-0.100000)"
fill="#000000" stroke="none">
<path d="M6760 9493 c-42 -6 -82 -24 -155 -71 -157 -100 -344 -278 -555 -527
-153 -180 -193 -218 -274 -256 -60 -28 -62 -29 -151 -18 -129 16 -411 16 -546
0 l-117 -14 -63 30 c-85 40 -118 69 -235 199 -235 262 -444 461 -579 551 -190
127 -278 134 -334 24 -47 -90 -91 -276 -111 -463 -26 -251 2 -655 55 -784 10
-25 10 -43 -2 -100 -26 -124 -3 -247 71 -363 33 -53 33 -54 19 -100 -28 -91
-53 -213 -63 -304 -17 -147 16 -363 76 -511 13 -33 24 -65 24 -71 0 -8 -63
-15 -202 -24 -112 -7 -257 -21 -323 -30 -127 -19 -123 -27 5 -11 91 12 439 40
496 40 35 0 43 -4 48 -23 3 -13 24 -51 46 -86 50 -77 51 -82 20 -92 -22 -8
-21 -8 6 -4 33 4 42 -5 177 -172 17 -21 17 -22 -70 -68 -201 -106 -399 -264
-446 -355 l-18 -35 23 30 c97 127 214 218 474 368 l62 35 31 -32 31 -32 -93
-101 c-164 -177 -222 -253 -281 -370 -40 -80 -30 -77 12 3 21 39 55 95 76 125
45 62 199 239 204 234 2 -2 -17 -38 -42 -82 -49 -84 -96 -206 -146 -379 -60
-205 -71 -280 -76 -529 -3 -126 -10 -246 -16 -265 -21 -71 -103 -269 -170
-415 -138 -297 -317 -712 -364 -843 -16 -47 -25 -57 -73 -84 -106 -61 -281
-253 -281 -309 0 -22 29 -25 62 -8 34 18 32 2 -5 -43 -52 -64 -95 -139 -117
-203 -27 -78 -26 -95 4 -95 l24 0 -20 -62 c-22 -72 -34 -207 -23 -264 6 -36 8
-38 21 -19 12 17 14 8 14 -78 l0 -97 -24 15 c-64 42 -160 205 -256 435 -88
211 -162 330 -284 459 -76 79 -160 140 -257 185 -188 89 -322 86 -395 -10
l-29 -38 1 -160 c0 -136 5 -181 28 -289 109 -509 309 -933 645 -1367 190 -245
485 -497 726 -617 158 -80 354 -123 554 -123 l102 0 48 -50 c27 -28 69 -59 93
-70 61 -27 147 -36 202 -20 34 9 52 9 79 1 79 -26 299 -6 376 34 31 16 32 15
72 -19 50 -42 147 -71 214 -64 27 4 66 0 93 -9 50 -15 129 -11 166 9 11 6 50
12 86 13 76 2 149 31 196 76 l31 30 33 -31 c55 -52 107 -73 190 -77 41 -3 92
-11 113 -19 49 -18 158 -18 203 1 20 8 40 12 46 9 21 -14 141 19 190 52 l50
34 61 -21 c51 -17 76 -20 142 -15 44 4 118 8 165 9 131 5 203 47 268 157 23
39 27 56 27 125 0 70 -4 87 -29 133 -16 29 -52 73 -79 99 l-49 46 54 56 c124
128 219 269 308 453 100 209 160 415 160 551 0 50 13 62 25 24 7 -21 8 -21 15
8 4 17 8 90 9 163 0 72 4 132 7 132 4 0 13 -8 21 -17 12 -16 13 -14 8 17 -2
19 -10 71 -16 114 -11 84 -79 304 -106 345 -15 23 -14 24 3 17 39 -16 84 -19
84 -6 0 6 -27 48 -59 93 -83 114 -125 192 -186 342 -155 380 -210 668 -177
920 22 167 21 546 -1 720 -30 227 -83 452 -146 616 -45 116 -136 296 -180 354
l-40 53 39 36 40 36 67 -36 c184 -99 368 -245 461 -369 l23 -30 -18 34 c-28
53 -169 192 -253 247 -41 28 -118 75 -170 104 -52 30 -97 55 -99 57 -2 1 22
31 54 65 97 105 136 159 178 247 l39 83 132 -6 c72 -4 194 -14 271 -21 77 -8
167 -16 200 -19 57 -5 58 -5 16 4 -78 17 -300 39 -459 46 -135 6 -152 9 -146
23 4 9 22 59 40 111 75 216 82 430 24 655 -18 66 -34 130 -37 143 -4 14 4 37
22 63 71 109 99 253 71 373 -15 64 -15 71 3 130 33 109 46 239 45 476 -1 318
-35 545 -105 694 -46 100 -89 137 -149 129z m-2787 -137 c36 -18 101 -60 144
-92 84 -64 358 -332 546 -536 103 -112 127 -132 193 -165 l76 -37 111 13 c201
23 351 25 513 7 147 -17 152 -17 207 2 107 38 148 74 377 332 183 206 336 353
448 428 104 69 159 90 199 76 60 -21 117 -187 149 -434 35 -279 -8 -735 -78
-829 -23 -30 -23 -37 1 -44 28 -7 45 -77 37 -155 -6 -67 -32 -134 -84 -215
l-30 -48 19 -67 c47 -163 69 -259 75 -334 7 -74 6 -81 -10 -75 -14 6 -16 3
-10 -16 8 -26 2 -21 -16 12 -8 15 -8 21 -1 17 36 -23 -9 39 -63 84 l-29 25 16
-30 c27 -55 97 -231 97 -246 0 -8 -8 0 -16 18 -9 17 -24 39 -35 49 -18 16 -19
16 -19 0 0 -9 12 -39 26 -67 31 -58 25 -79 -6 -26 -22 37 -64 68 -110 82 -21
7 -16 -1 26 -47 50 -56 75 -110 73 -164 0 -16 -3 -22 -6 -14 -3 8 -14 25 -23
37 -24 31 -35 5 -15 -34 18 -34 18 -58 2 -96 l-12 -29 -39 31 c-52 42 -58 39
-13 -7 43 -44 45 -52 15 -53 l-23 -2 23 -4 c12 -2 22 -9 22 -14 0 -18 -53
-120 -75 -144 -12 -12 -31 -38 -43 -56 -24 -39 -186 -199 -202 -199 -5 0 -10
-6 -10 -14 0 -7 -17 -25 -38 -39 l-39 -25 -69 40 c-82 48 -174 87 -265 113
-65 18 -66 20 -56 43 10 21 16 23 47 18 55 -9 202 -53 304 -91 50 -19 82 -27
72 -20 -38 28 -252 101 -380 130 -22 5 -26 9 -17 18 13 13 170 -2 329 -33 129
-25 176 -25 62 0 -136 31 -261 50 -322 50 -57 0 -80 12 -60 32 7 7 35 7 92 -2
44 -7 83 -10 86 -7 3 3 -35 11 -85 17 -91 13 -91 13 -91 41 l0 29 103 0 c92 0
184 -7 362 -26 33 -4 58 -4 55 -1 -12 13 -262 37 -387 37 l-133 0 -11 27 c-7
20 -6 28 3 35 15 9 8 8 178 18 l135 8 -155 -4 c-166 -5 -190 -6 -190 -12 0 -2
7 -25 16 -53 24 -72 16 -82 -52 -73 -41 5 -55 4 -50 -5 4 -6 30 -11 57 -11 49
0 50 -1 47 -27 -3 -25 -8 -28 -45 -31 -23 -2 -64 1 -90 6 -55 10 -73 6 -73
-14 0 -16 21 -19 36 -5 5 4 45 5 89 1 68 -6 72 -7 28 -8 -63 -2 -71 -16 -11
-19 22 -2 43 -5 45 -7 8 -8 -16 -43 -41 -59 -22 -15 -28 -15 -60 -2 -19 8 -43
15 -53 14 -10 0 2 -8 26 -16 l44 -16 -24 -18 c-72 -55 -247 -71 -331 -30 -54
26 -114 88 -124 128 -5 19 -1 38 13 62 11 20 28 63 37 96 18 63 36 85 71 85
23 0 75 44 75 64 0 42 -80 65 -223 66 -154 0 -207 -22 -207 -85 0 -15 59 -55
82 -55 23 0 45 -31 52 -75 4 -22 18 -59 32 -82 37 -63 32 -99 -19 -147 -23
-23 -65 -49 -92 -59 -62 -21 -186 -23 -244 -2 -42 15 -120 64 -121 77 0 3 16
6 36 6 19 0 38 3 42 7 11 11 -119 -1 -158 -15 -112 -39 -225 -87 -297 -125
l-82 -44 -40 32 c-44 35 -50 51 -23 62 81 31 265 90 345 111 79 20 102 22 114
13 11 -10 13 -10 11 1 -2 8 15 17 47 25 l50 13 -52 1 c-46 1 -53 4 -53 21 0
16 -5 19 -27 15 -16 -2 -59 -7 -96 -10 -88 -7 -393 -72 -384 -81 3 -3 127 21
277 55 25 5 85 13 134 17 80 6 88 5 85 -11 -3 -13 -32 -24 -114 -45 -125 -32
-228 -67 -314 -105 l-60 -27 -41 32 c-41 32 -50 54 -27 64 6 3 3 4 -9 1 -25
-6 -55 22 -33 30 8 2 66 13 129 24 63 11 169 31 235 46 108 23 205 34 335 38
70 3 44 22 -30 22 -46 0 -65 4 -64 13 1 6 2 26 3 42 0 17 10 39 22 51 26 26
22 29 -21 19 -19 -4 -27 -8 -17 -9 18 -1 20 -5 11 -37 -5 -21 -13 -22 -192
-27 -167 -4 -472 -40 -458 -54 3 -3 52 2 316 38 36 4 122 8 193 9 l127 0 0
-28 0 -27 -132 -22 c-73 -13 -205 -36 -293 -53 -88 -16 -170 -30 -182 -30 -15
0 -33 14 -53 42 -35 48 -36 55 -12 61 11 3 10 4 -5 3 -11 0 -32 8 -44 19 -24
20 -24 20 -9 0 14 -19 14 -19 -3 -6 -10 8 -16 20 -13 28 3 8 1 11 -4 8 -7 -4
-60 82 -60 98 0 3 15 8 33 12 l32 8 -35 6 c-29 5 -35 10 -33 29 2 16 -1 21 -9
16 -6 -4 0 8 14 27 52 70 47 82 -9 22 l-35 -38 8 40 c4 22 13 58 20 80 l14 40
-20 -25 c-11 -14 -20 -35 -20 -47 0 -13 -4 -23 -10 -23 -15 0 -12 36 6 78 9
20 17 47 19 60 1 12 21 45 44 72 l41 49 -32 -11 c-18 -6 -51 -31 -75 -56 -24
-24 -43 -42 -43 -40 0 1 9 32 20 66 28 90 23 107 -10 37 -24 -50 -29 -56 -30
-32 0 37 43 139 90 209 l38 57 -42 -26 c-51 -32 -95 -72 -107 -98 -6 -13 -8 9
-5 65 2 56 18 140 45 244 l41 158 -27 47 c-64 109 -84 161 -90 229 -6 76 11
157 31 149 9 -4 5 14 -10 51 -29 72 -60 226 -73 366 -32 329 19 730 110 858
28 38 70 37 152 -6z m-82 -2363 c-15 -29 -40 -59 -41 -50 0 10 39 67 46 67 3
0 0 -8 -5 -17z m1614 -247 c27 -19 13 -46 -25 -46 -50 0 -67 -15 -80 -72 -23
-96 -49 -119 -52 -45 l-1 42 -4 -40 c-9 -82 -38 -71 -53 20 -5 32 -14 63 -20
69 -5 5 -29 12 -52 15 -48 7 -64 35 -32 58 26 19 293 18 319 -1z m-687 -401
c-1 -1 -50 -31 -108 -66 -58 -34 -131 -82 -164 -105 l-59 -43 -36 19 c-83 43
-83 44 -1 85 41 21 104 49 140 62 36 13 74 28 85 34 46 23 110 36 128 27 10
-5 17 -11 15 -13z m1224 -12 c85 -27 259 -112 265 -129 4 -12 -105 -74 -129
-74 -8 0 -51 29 -96 64 -45 35 -109 81 -142 101 -33 20 -60 39 -60 42 0 3 8
12 18 19 19 14 34 12 144 -23z m-1178 -28 c56 -43 145 -77 212 -83 89 -7 133
11 259 102 9 7 24 0 49 -22 117 -103 281 -109 416 -16 36 25 59 34 74 30 49
-12 276 -176 276 -198 0 -5 -6 -8 -13 -8 -6 0 -64 -16 -127 -35 -109 -34 -112
-35 -55 -30 32 3 71 8 85 11 51 10 -32 -29 -90 -43 l-55 -13 60 4 c36 2 92 16
140 35 l80 31 38 -42 c20 -24 56 -71 78 -105 41 -63 60 -83 38 -40 -24 45 -73
113 -107 149 -20 21 -34 39 -31 41 26 21 123 57 138 52 11 -3 55 -43 97 -88
43 -45 67 -66 54 -47 -14 19 -53 62 -87 95 l-62 61 35 19 36 19 23 -28 c38
-48 151 -274 204 -409 59 -151 85 -250 106 -412 8 -66 20 -142 26 -170 34
-165 31 -476 -6 -725 -8 -54 -19 -167 -25 -251 -18 -284 -52 -423 -245 -1009
-213 -647 -278 -866 -349 -1185 -47 -212 -65 -333 -72 -490 -8 -164 4 -247 58
-384 46 -118 59 -208 38 -264 -25 -63 -116 -137 -170 -137 -25 0 -25 5 -1 37
31 39 46 122 32 178 -14 56 -36 92 -65 107 -20 10 -20 10 -5 -8 76 -88 61
-251 -28 -310 -37 -25 -123 -38 -180 -29 -40 7 -93 25 -93 32 0 2 10 23 22 46
30 58 30 146 -1 210 -13 26 -27 47 -32 47 -5 0 -3 -13 5 -29 42 -80 40 -169
-6 -237 -22 -34 -25 -35 -75 -31 -58 4 -121 39 -150 84 -26 39 -24 251 4 523
13 118 41 411 64 650 68 728 145 1242 234 1565 13 49 23 91 21 92 -2 2 -20
-37 -40 -88 -109 -271 -220 -918 -271 -1574 -3 -44 -10 -114 -15 -155 -5 -41
-16 -158 -25 -260 -8 -102 -22 -241 -30 -310 -8 -69 -15 -129 -15 -133 0 -5
-4 -6 -9 -3 -13 9 -21 130 -30 454 -6 207 -12 307 -20 315 -11 11 -9 -156 4
-378 7 -126 -12 -29 -35 170 -11 105 -23 197 -26 205 -3 8 -10 159 -15 335 -5
176 -16 393 -24 483 -8 89 -15 170 -15 179 0 9 -2 14 -5 11 -3 -3 2 -113 10
-244 9 -131 15 -291 13 -354 l-3 -115 -13 110 c-34 291 -137 872 -192 1085
-33 128 -110 353 -118 346 -2 -3 0 -18 6 -33 20 -48 79 -302 105 -453 61 -345
110 -676 172 -1165 114 -902 108 -862 149 -1005 20 -72 21 -211 1 -250 -20
-38 -70 -75 -123 -91 -56 -16 -68 -4 -45 42 28 54 23 156 -11 213 -35 61 -50
59 -19 -1 21 -41 24 -59 21 -123 -5 -123 -48 -160 -183 -160 -64 0 -77 3 -112
29 -74 53 -96 172 -49 264 27 55 21 62 -12 12 -50 -79 -50 -172 3 -249 l24
-36 -42 0 c-48 0 -132 36 -164 71 -56 61 -58 153 -7 305 36 105 37 109 31 223
-14 288 -156 820 -352 1321 -219 560 -308 818 -380 1095 -49 194 -62 261 -75
395 l-9 95 4 -115 c5 -149 50 -377 120 -613 60 -202 94 -304 284 -846 247
-708 325 -1010 338 -1325 l6 -139 -46 32 c-195 134 -511 135 -685 3 -20 -15
-36 -22 -40 -16 -49 72 -115 164 -119 164 -8 0 26 -57 71 -118 l46 -62 -34
-50 -34 -49 -58 62 c-33 34 -86 97 -119 139 -61 80 -78 93 -50 39 27 -54 10
-34 -54 64 -64 96 -84 120 -56 65 32 -63 6 -26 -54 74 -77 129 -112 165 -76
79 8 -20 14 -38 12 -40 -7 -6 -97 196 -122 273 -27 82 -79 294 -90 362 -4 24
-9 41 -11 39 -3 -2 2 -49 10 -103 29 -191 28 -194 -8 -82 -60 183 -67 320 -29
535 9 51 14 96 10 100 -4 3 -18 -4 -32 -17 -14 -13 -28 -20 -32 -17 -15 15 37
181 81 255 24 42 42 79 41 81 -2 2 -19 -6 -38 -18 -77 -47 -73 -36 65 172 47
71 70 113 58 107 -28 -15 -25 -1 8 33 l27 30 -37 -6 c-21 -3 -38 -3 -38 1 0 4
19 29 43 55 56 62 141 111 230 132 79 19 113 38 51 28 -59 -9 -36 5 27 16 52
10 51 10 -27 7 l-81 -4 62 157 c35 86 116 273 179 416 64 143 147 328 184 412
36 83 70 147 73 141 4 -6 9 2 11 18 3 21 7 12 16 -37 11 -61 28 -122 99 -359
30 -99 64 -193 68 -188 2 2 -7 44 -21 93 -39 143 -83 328 -94 399 -37 235 -31
580 14 766 32 129 32 170 1 75 -13 -38 -24 -67 -24 -64 -2 12 48 244 64 296
25 83 95 245 120 279 13 17 22 34 19 37 -6 6 24 69 73 149 l34 58 27 -17 c15
-9 29 -18 31 -20 2 -1 -32 -37 -75 -79 -73 -71 -75 -72 -16 -23 116 98 111 95
143 76 24 -14 84 -47 97 -54 2 0 -26 -38 -62 -84 -59 -74 -126 -184 -126 -205
0 -5 23 27 51 71 28 44 74 108 102 143 57 71 51 69 157 29 36 -14 85 -27 110
-31 39 -6 35 -3 -35 24 -98 37 -137 69 -44 36 67 -24 152 -40 144 -26 -3 4
-15 10 -27 13 -47 10 -192 65 -195 74 -3 11 288 202 310 203 5 0 23 -11 41
-25z m2055 -2745 l41 -105 -35 40 c-19 22 -34 43 -35 48 0 4 -5 7 -10 7 -14 0
64 -124 117 -185 56 -65 55 -76 -4 -28 l-47 38 24 -35 c13 -19 46 -64 72 -99
46 -61 56 -89 23 -61 -28 24 -27 3 5 -61 18 -35 39 -81 47 -103 18 -48 71
-246 66 -246 -1 0 -18 17 -37 37 -19 21 -37 35 -41 31 -3 -3 5 -28 19 -55 36
-72 57 -165 54 -236 l-3 -62 -25 48 c-14 26 -28 47 -31 47 -4 0 -2 -19 3 -42
14 -55 13 -285 0 -318 -10 -23 -11 -22 -12 15 0 22 -4 46 -9 53 -5 9 -10 -31
-13 -100 -3 -62 -11 -124 -17 -138 -9 -21 -11 -12 -7 50 l5 75 -15 -60 c-7
-33 -21 -91 -30 -130 -19 -81 -85 -287 -91 -281 -2 2 3 47 12 100 21 135 17
157 -10 51 -12 -50 -37 -124 -54 -165 -33 -81 -105 -200 -119 -200 -5 0 -25
-24 -44 -52 -20 -29 -53 -73 -74 -96 l-39 -44 -77 16 c-42 9 -80 16 -83 16 -3
0 11 22 31 50 36 51 93 172 94 200 0 8 -20 -23 -44 -69 -24 -46 -59 -105 -77
-130 l-34 -46 -75 -6 c-42 -3 -102 -14 -134 -23 -32 -10 -60 -15 -63 -12 -2 2
-8 44 -13 93 -30 323 136 994 505 2032 73 207 102 307 141 481 5 20 16 -3 54
-105 26 -71 66 -177 89 -235z m-4918 -185 c133 -54 283 -178 383 -320 66 -91
142 -246 221 -451 97 -248 171 -378 299 -524 42 -49 61 -83 91 -163 89 -242
208 -434 409 -657 42 -47 76 -88 76 -91 0 -15 -129 -60 -197 -70 -68 -9 -206
1 -222 16 -2 3 22 5 55 6 32 0 77 6 99 14 38 12 35 13 -72 14 -62 1 -136 6
-164 12 -52 11 -264 107 -255 116 2 2 17 -2 33 -10 49 -25 156 -56 218 -63 33
-3 58 -4 55 -2 -3 3 -72 24 -155 47 -145 41 -215 65 -215 74 0 3 35 -6 78 -20
61 -19 104 -25 207 -28 128 -3 129 -3 45 6 -97 12 -226 48 -318 90 -62 28
-167 97 -159 105 2 2 30 -5 63 -16 80 -28 273 -55 287 -41 8 8 1 11 -25 11
-57 0 -206 48 -292 93 -43 23 -104 66 -135 95 l-56 52 55 -21 c143 -56 184
-69 262 -79 57 -8 102 -9 143 -2 l60 10 -76 1 c-153 2 -312 61 -454 169 -83
62 -152 128 -144 137 3 2 27 -12 55 -31 115 -82 303 -165 368 -163 11 0 -4 7
-34 15 -66 18 -188 82 -250 132 -133 107 -260 236 -246 249 2 2 41 -23 86 -56
145 -103 297 -165 431 -176 l64 -5 -65 15 c-79 18 -168 49 -235 83 -62 31
-242 151 -290 194 -47 40 -106 125 -78 110 11 -6 25 -18 32 -26 20 -23 196
-135 254 -160 88 -39 105 -39 37 0 -145 82 -323 235 -371 319 -16 27 -29 54
-29 58 0 5 26 -14 58 -41 60 -52 160 -122 175 -122 5 0 -17 19 -49 43 -33 24
-78 65 -101 91 -77 87 -193 294 -193 343 0 8 17 -7 39 -34 21 -26 63 -70 92
-98 l53 -50 -36 45 c-83 106 -151 239 -192 378 -18 63 -7 59 40 -14 19 -30 37
-54 39 -54 5 0 -20 59 -59 141 -44 94 -56 139 -55 208 l1 66 13 -65 c10 -51
64 -193 65 -170 0 3 -11 50 -25 104 -14 54 -25 118 -25 142 0 41 2 44 32 52
43 11 125 -3 199 -33z m839 -1148 c65 -85 115 -165 108 -173 -14 -13 -181 220
-201 281 -8 24 1 12 93 -108z m3756 -1016 c128 -62 182 -138 172 -242 -6 -60
-50 -132 -98 -162 l-35 -21 37 41 c79 89 76 219 -8 318 l-26 30 25 -50 c14
-27 28 -66 32 -85 28 -130 -33 -250 -129 -250 -20 0 -36 1 -36 3 0 1 11 24 25
51 35 70 34 146 -2 216 -16 29 -39 60 -53 69 l-25 16 18 -25 c34 -48 50 -95
54 -155 5 -69 -22 -134 -69 -169 -38 -27 -130 -33 -203 -12 -55 17 -57 18 -48
44 4 15 8 68 8 117 -1 81 -4 98 -37 172 l-36 83 25 20 c14 11 41 22 62 25 20
4 43 8 51 10 8 2 60 2 115 -1 91 -4 107 -8 181 -43z m-2311 24 c62 -17 152
-61 198 -99 l28 -22 -22 -50 c-24 -52 -32 -173 -16 -226 8 -23 5 -28 -22 -42
-50 -26 -86 -21 -115 17 -37 49 -51 121 -39 199 12 71 9 84 -9 42 -7 -16 -12
-69 -13 -119 0 -75 4 -96 22 -127 12 -20 19 -39 16 -42 -4 -3 -51 -6 -106 -6
-99 0 -99 0 -132 33 -56 56 -70 186 -30 281 24 56 7 42 -20 -16 -33 -71 -35
-180 -4 -240 26 -51 16 -63 -45 -54 -51 8 -86 41 -119 115 -27 62 -20 161 17
227 24 42 24 46 5 28 -40 -36 -60 -91 -61 -168 -1 -79 8 -104 55 -153 37 -39
18 -45 -34 -10 -47 31 -69 79 -69 153 0 74 21 139 58 177 42 44 119 89 175
103 73 17 212 17 282 -1z m-722 -131 c33 -31 73 -61 88 -66 30 -10 38 -34 31
-92 l-5 -39 -125 7 c-192 11 -224 22 -133 45 27 7 76 28 108 47 66 41 68 42
61 50 -3 3 -18 -6 -33 -21 -65 -59 -247 -84 -365 -49 -48 14 -207 93 -198 98
2 1 53 -2 113 -7 139 -12 233 2 319 48 33 18 65 34 70 34 4 1 36 -24 69 -55z"/>
<path d="M3908 9283 c12 -2 30 -2 40 0 9 3 -1 5 -23 4 -22 0 -30 -2 -17 -4z"/>
<path d="M6658 9275 c-88 -32 -201 -132 -376 -330 -126 -143 -266 -345 -306
-443 -15 -34 -29 -84 -32 -110 -4 -44 -3 -42 26 36 36 96 120 243 164 288 17
17 51 38 76 47 188 67 280 102 272 105 -5 1 -62 -15 -128 -36 -65 -22 -134
-43 -152 -47 -32 -7 -33 -6 -22 14 24 45 162 126 318 186 39 16 70 30 68 32
-5 5 -132 -42 -213 -78 -36 -16 -68 -28 -70 -25 -7 7 109 137 196 219 92 86
152 125 220 143 28 8 36 13 21 13 -14 0 -42 -7 -62 -14z"/>
<path d="M4015 9255 c57 -30 129 -84 196 -147 65 -62 233 -247 228 -253 -3 -2
-37 18 -76 44 -68 47 -224 116 -245 109 -5 -2 23 -16 64 -32 40 -15 112 -52
160 -83 48 -30 92 -52 96 -49 5 3 25 -15 46 -39 20 -25 35 -45 33 -45 -3 0
-29 11 -58 24 -61 27 -265 86 -294 86 -11 0 48 -23 130 -50 83 -28 172 -63
200 -78 62 -34 135 -133 210 -287 61 -123 71 -125 25 -6 -58 149 -150 285
-324 476 -201 222 -323 324 -416 349 -14 4 -2 -5 25 -19z"/>
<path d="M6817 9220 c14 -36 37 -119 51 -185 22 -108 24 -136 19 -285 -5 -167
-21 -270 -57 -376 -11 -31 -18 -59 -16 -62 3 -2 12 21 22 52 10 31 19 54 21
53 11 -12 -33 -182 -67 -260 -56 -123 -55 -121 -42 -113 12 7 80 146 93 190 5
16 20 97 35 180 33 192 38 449 10 590 -21 107 -60 234 -80 261 -8 11 -3 -9 11
-45z"/>
<path d="M3771 9047 c-6 -28 -13 -77 -15 -107 -2 -30 -2 -44 1 -30 2 14 11 60
19 103 18 89 14 115 -5 34z"/>
<path d="M3746 8665 c3 -163 8 -210 34 -333 26 -125 75 -270 87 -258 2 2 -7
32 -21 66 -24 58 -67 234 -65 262 1 7 7 -5 14 -27 21 -63 17 -12 -5 68 -18 63
-30 164 -44 357 -2 30 -2 -30 0 -135z"/>
<path d="M6195 8640 c-3 -6 1 -7 9 -4 18 7 21 14 7 14 -6 0 -13 -4 -16 -10z"/>
<path d="M4460 8630 c8 -5 20 -10 25 -10 6 0 3 5 -5 10 -8 5 -19 10 -25 10 -5
0 -3 -5 5 -10z"/>
<path d="M6118 8606 c-21 -12 -41 -26 -45 -30 -12 -12 64 21 89 39 34 23 -1
17 -44 -9z"/>
<path d="M4501 8616 c10 -9 129 -66 129 -61 0 5 -116 65 -126 65 -4 0 -5 -2
-3 -4z"/>
<path d="M6295 8560 c-108 -22 -225 -92 -256 -154 -8 -14 2 -9 27 16 22 20 59
46 84 58 25 12 54 27 65 33 11 6 49 21 85 33 67 23 65 28 -5 14z"/>
<path d="M4370 8547 c0 -3 42 -22 93 -44 52 -21 115 -57 145 -81 32 -26 49
-35 43 -23 -27 49 -83 81 -268 149 -7 2 -13 2 -13 -1z"/>
<path d="M4100 8459 c0 -9 129 -41 140 -34 11 7 126 -21 200 -48 30 -11 90
-43 134 -69 43 -27 81 -46 84 -43 11 11 -76 81 -138 112 -36 17 -105 41 -155
53 -92 22 -265 41 -265 29z"/>
<path d="M6440 8455 c-173 -21 -312 -79 -390 -162 -47 -49 -45 -49 34 11 59
44 126 80 126 67 0 -5 -15 -19 -34 -30 -19 -12 -40 -29 -47 -38 -8 -9 12 1 44
22 65 43 89 43 27 0 -42 -29 -57 -48 -17 -23 86 57 132 79 200 96 90 23 104
32 56 33 -19 1 0 6 43 13 42 6 80 15 84 19 9 8 -2 8 -126 -8z m-75 -36 c-22
-5 -59 -17 -82 -25 -23 -9 -47 -14 -55 -11 -18 6 110 46 147 45 27 0 26 -1
-10 -9z"/>
<path d="M5011 8439 c-1 -3 12 -63 28 -135 16 -71 35 -163 42 -204 19 -108 24
-47 5 70 -13 79 -71 291 -75 269z"/>
<path d="M4369 8356 c73 -36 135 -66 137 -66 3 0 22 -11 44 -25 22 -14 43 -25
47 -25 11 0 -71 59 -82 60 -11 0 -164 79 -154 80 4 0 41 -16 84 -35 43 -20 79
-34 81 -32 7 7 -147 79 -159 74 -7 -2 -23 1 -37 8 -14 7 -41 16 -60 20 -20 3
22 -22 99 -59z"/>
<path d="M5671 8358 c-24 -72 -65 -287 -57 -296 11 -10 15 4 31 103 9 55 25
133 36 174 25 92 18 104 -10 19z"/>
<path d="M5286 8338 c-40 -140 -39 -194 8 -403 8 -33 20 -118 26 -190 14 -155
24 -182 15 -40 -6 89 -14 149 -46 360 -13 87 -11 191 5 260 18 75 13 84 -8 13z"/>
<path d="M5434 8330 c3 -14 10 -54 16 -90 13 -72 7 -182 -15 -257 -19 -66 -57
-299 -53 -326 2 -12 11 28 21 88 10 61 30 159 44 219 21 92 25 125 20 205 -3
53 -12 116 -21 141 -9 25 -14 34 -12 20z"/>
<path d="M6210 8300 c-41 -22 -83 -49 -95 -60 -22 -23 112 47 155 80 37 29 24
24 -60 -20z"/>
<path d="M4318 8293 c6 -2 18 -2 25 0 6 3 1 5 -13 5 -14 0 -19 -2 -12 -5z"/>
<path d="M6321 8280 c-30 -11 -72 -31 -93 -45 -41 -27 -52 -44 -15 -23 12 7
27 13 32 14 22 1 55 16 55 25 0 5 3 8 8 8 12 -3 72 25 72 33 0 10 5 11 -59
-12z"/>
<path d="M6408 8293 c6 -2 18 -2 25 0 6 3 1 5 -13 5 -14 0 -19 -2 -12 -5z"/>
<path d="M4223 8273 c9 -2 23 -2 30 0 6 3 -1 5 -18 5 -16 0 -22 -2 -12 -5z"/>
<path d="M4440 8244 c60 -38 59 -39 -12 -6 -25 12 -61 24 -80 27 -21 4 -27 3
-15 -3 10 -4 18 -11 18 -15 -2 -21 1 -26 17 -30 9 -2 -12 -3 -48 -2 -36 1 -77
7 -92 13 -16 6 -28 8 -28 3 0 -13 52 -33 112 -41 32 -5 89 -24 128 -42 60 -29
68 -31 56 -13 -7 11 -34 31 -60 44 -32 17 -42 27 -34 33 18 11 28 10 26 -3 -2
-6 3 -14 10 -16 6 -3 12 0 12 7 0 8 6 8 20 0 11 -6 18 -15 15 -19 -2 -5 3 -8
13 -7 9 0 16 -5 14 -12 -1 -8 2 -11 8 -7 8 5 7 11 -1 21 -6 8 -8 14 -4 14 15
0 -29 40 -71 65 -64 37 -66 30 -4 -11z m-55 -4 c3 -5 2 -10 -4 -10 -5 0 -13 5
-16 10 -3 6 -2 10 4 10 5 0 13 -4 16 -10z"/>
<path d="M4287 8250 c19 -22 26 -21 17 4 -3 9 -12 16 -20 16 -11 0 -10 -4 3
-20z"/>
<path d="M6400 8255 c-14 -8 -36 -14 -48 -15 -30 0 -125 -56 -141 -82 -7 -12
-8 -17 -2 -13 6 3 11 2 11 -4 0 -5 -4 -12 -9 -16 -6 -3 -9 -14 -8 -24 1 -17 3
-17 33 5 39 30 146 74 176 73 16 0 5 -9 -37 -29 -33 -16 -53 -29 -44 -29 9 -1
29 5 45 13 33 17 122 33 279 51 109 12 110 12 39 14 -39 0 -96 -4 -125 -9 -55
-11 -109 -5 -109 10 0 5 10 11 23 13 12 3 -4 3 -36 0 -64 -6 -153 -44 -205
-88 -18 -15 -32 -22 -32 -16 0 15 75 69 128 93 23 10 42 23 42 28 0 9 46 26
90 33 19 3 16 5 -10 5 -19 1 -46 -5 -60 -13z m-80 -40 c0 -2 -10 -9 -22 -15
-22 -11 -22 -10 -4 4 21 17 26 19 26 11z"/>
<path d="M5356 8178 c-4 -24 -9 -59 -11 -78 l-4 -35 13 40 c14 39 14 38 15
-65 1 -96 -11 -252 -24 -318 l-5 -27 10 25 c26 58 38 204 31 348 -4 78 -10
145 -13 147 -3 3 -8 -14 -12 -37z"/>
<path d="M3960 8190 c-10 -7 5 -9 51 -9 37 1 73 5 80 10 9 5 -10 9 -51 9 -36
0 -72 -5 -80 -10z"/>
<path d="M5120 8168 c0 -18 5 -49 9 -68 11 -40 106 -304 145 -400 50 -125 15
0 -55 190 -66 183 -77 221 -78 283 -1 15 -5 27 -11 27 -5 0 -10 -15 -10 -32z"/>
<path d="M4160 8178 c201 -32 241 -43 295 -83 50 -36 62 -38 25 -5 -76 68
-182 101 -315 99 l-60 -2 55 -9z"/>
<path d="M5592 8154 c-1 -12 -18 -82 -37 -157 -19 -74 -35 -144 -34 -154 0
-10 5 -2 10 17 5 19 23 84 40 143 17 59 28 122 26 140 -2 18 -5 22 -5 11z"/>
<path d="M4250 8130 c94 -30 110 -33 64 -10 -22 10 -60 22 -85 25 -40 5 -38 3
21 -15z"/>
<path d="M5321 8050 c0 -58 4 -114 8 -125 8 -19 4 198 -4 220 -2 6 -3 -37 -4
-95z"/>
<path d="M6365 8101 c-38 -15 -79 -31 -89 -35 -10 -3 -16 -9 -14 -12 3 -3 46
10 94 30 49 19 100 36 114 39 23 4 22 4 -5 5 -16 1 -61 -11 -100 -27z"/>
<path d="M4190 8090 c47 -4 98 -13 114 -19 16 -7 31 -9 34 -7 12 12 -60 28
-143 31 l-90 4 85 -9z"/>
<path d="M6438 8073 c18 -2 45 -2 60 0 15 2 0 4 -33 4 -33 0 -45 -2 -27 -4z"/>
<path d="M6578 8073 c7 -3 16 -2 19 1 4 3 -2 6 -13 5 -11 0 -14 -3 -6 -6z"/>
<path d="M4145 8050 c39 -10 81 -19 96 -19 14 -1 29 -5 35 -10 13 -13 85 -31
79 -20 -4 5 -12 9 -20 9 -7 0 -15 4 -17 9 -3 10 -193 52 -225 50 -10 -1 14 -9
52 -19z"/>
<path d="M6368 8063 c6 -2 18 -2 25 0 6 3 1 5 -13 5 -14 0 -19 -2 -12 -5z"/>
<path d="M6427 8045 c-57 -16 -70 -25 -36 -25 23 -1 22 -2 -6 -15 -42 -19 -30
-18 66 6 98 24 109 30 83 40 -27 11 -52 9 -107 -6z m78 -5 c-3 -5 -16 -10 -28
-9 -20 1 -20 2 3 9 14 4 26 8 28 9 2 1 0 -3 -3 -9z"/>
<path d="M4174 8022 c3 -5 25 -12 48 -15 24 -2 52 -8 63 -12 13 -4 11 -1 -5 8
-31 18 -115 33 -106 19z"/>
<path d="M4108 8013 c12 -2 30 -2 40 0 9 3 -1 5 -23 4 -22 0 -30 -2 -17 -4z"/>
<path d="M6460 7985 c-70 -14 -144 -41 -85 -30 66 11 156 33 162 39 8 8 2 7
-77 -9z"/>
<path d="M4116 7951 c5 -5 44 -13 87 -18 79 -9 88 -4 28 16 -41 13 -129 15
-115 2z"/>
<path d="M4298 7938 c5 -5 16 -8 23 -6 8 3 3 7 -10 11 -17 4 -21 3 -13 -5z"/>
<path d="M6475 7935 c-27 -7 -41 -13 -30 -14 11 0 43 6 70 13 63 18 28 19 -40
1z"/>
<path d="M4027 7930 c10 -9 136 -40 160 -39 23 1 -23 15 -105 33 -35 8 -60 11
-55 6z"/>
<path d="M6560 7923 c-45 -8 -102 -24 -98 -28 2 -2 44 4 93 14 77 16 80 27 5
14z"/>
<path d="M4123 7870 c-46 -10 -146 -50 -139 -57 2 -2 33 5 69 16 36 11 93 23
126 27 34 3 61 11 61 15 0 11 -59 10 -117 -1z"/>
<path d="M6460 7863 c19 -2 90 -17 157 -33 67 -17 128 -27 137 -24 14 5 46 46
46 59 0 3 -13 -9 -28 -26 l-28 -31 -104 31 c-69 21 -122 30 -159 29 -39 -1
-45 -2 -21 -5z"/>
<path d="M3902 7815 c15 -16 29 -27 31 -24 3 2 -10 15 -27 28 l-31 24 27 -28z"/>
<path d="M4060 7788 c-19 -5 -39 -14 -45 -20 -7 -8 -2 -9 15 -4 14 4 49 9 78
13 34 4 49 9 40 14 -16 11 -43 10 -88 -3z"/>
<path d="M6557 7769 c8 -8 27 -8 64 -1 l54 10 -64 1 c-47 1 -62 -2 -54 -10z"/>
<path d="M6611 7746 c10 -9 79 -14 79 -5 0 5 -19 9 -42 9 -23 0 -39 -2 -37 -4z"/>
<path d="M4000 7724 c-24 -15 -23 -15 25 -10 28 3 61 9 74 12 17 5 22 4 17 -4
-5 -8 -1 -10 9 -5 13 5 14 7 3 14 -21 14 -101 10 -128 -7z"/>
<path d="M4810 7704 c19 -22 42 -50 51 -64 23 -34 31 -22 17 23 -13 44 -32 63
-73 73 l-30 7 35 -39z"/>
<path d="M5844 7706 c-22 -22 -34 -44 -34 -62 0 -15 2 -25 4 -23 57 64 94 119
80 119 -9 0 -31 -15 -50 -34z"/>
<path d="M6537 7723 c-4 -6 20 -12 61 -16 37 -2 76 -8 87 -12 11 -3 7 1 -8 10
-34 20 -132 32 -140 18z"/>
<path d="M4040 7690 c-25 -11 -38 -19 -30 -19 8 0 33 8 55 18 51 25 34 25 -25
1z"/>
<path d="M5371 7614 c0 -11 3 -14 6 -6 3 7 2 16 -1 19 -3 4 -6 -2 -5 -13z"/>
<path d="M4639 7447 c-26 -7 -70 -28 -99 -47 -38 -24 -67 -35 -107 -38 -52 -4
-53 -5 -32 -20 13 -9 38 -18 57 -21 32 -6 34 -8 38 -54 11 -142 129 -257 264
-257 30 0 80 7 110 15 108 29 140 17 140 -56 0 -25 3 -29 13 -20 32 26 37 82
17 180 -25 119 -56 187 -110 241 -75 75 -190 105 -291 77z m152 -84 c14 -36 3
-75 -19 -71 -19 4 -27 37 -18 74 8 32 24 30 37 -3z m-167 -18 c-17 -40 -18
-112 -3 -152 16 -44 79 -102 117 -109 45 -9 102 9 132 41 13 14 33 55 46 91
l22 66 17 -45 c29 -77 -2 -134 -95 -176 -62 -28 -115 -27 -181 7 -69 35 -110
91 -117 161 -6 65 3 97 35 127 36 33 45 30 27 -11z"/>
<path d="M5900 7451 c-122 -40 -201 -144 -235 -311 -17 -80 -17 -88 -1 -142
18 -63 36 -76 36 -28 0 35 31 70 61 70 11 0 46 -7 76 -16 68 -20 163 -15 217
11 84 40 156 147 156 233 0 27 4 42 13 42 6 0 35 11 62 24 l50 24 -48 1 c-38
1 -68 11 -134 48 -76 41 -94 47 -157 49 -39 2 -82 0 -96 -5z m44 -77 c11 -29
6 -82 -8 -87 -26 -10 -53 46 -41 83 8 24 40 27 49 4z m195 -62 c23 -82 1 -153
-64 -211 -87 -76 -182 -81 -273 -13 -67 49 -84 110 -49 177 9 18 12 15 22 -25
24 -93 66 -144 130 -156 104 -19 197 91 182 216 -3 25 -9 53 -13 64 -7 17 -5
17 24 2 22 -11 34 -27 41 -54z"/>
<path d="M4461 6686 c2 -2 63 -6 134 -8 79 -3 112 -2 85 3 -45 7 -227 12 -219
5z"/>
<path d="M5835 6641 c-3 -5 -1 -12 5 -16 12 -7 30 2 30 16 0 12 -27 12 -35 0z"/>
<path d="M4860 6630 c0 -5 7 -10 15 -10 8 0 15 5 15 10 0 6 -7 10 -15 10 -8 0
-15 -4 -15 -10z"/>
<path d="M4940 6560 c0 -5 7 -10 15 -10 8 0 15 5 15 10 0 6 -7 10 -15 10 -8 0
-15 -4 -15 -10z"/>
<path d="M5740 6554 c0 -9 7 -14 17 -12 25 5 28 28 4 28 -12 0 -21 -6 -21 -16z"/>
<path d="M6588 6533 c7 -3 16 -2 19 1 4 3 -2 6 -13 5 -11 0 -14 -3 -6 -6z"/>
<path d="M4970 6486 c0 -9 7 -16 16 -16 17 0 14 22 -4 28 -7 2 -12 -3 -12 -12z"/>
<path d="M5660 6490 c0 -5 5 -10 10 -10 6 0 10 5 10 10 0 6 -4 10 -10 10 -5 0
-10 -4 -10 -10z"/>
<path d="M6168 6493 c6 -2 18 -2 25 0 6 3 1 5 -13 5 -14 0 -19 -2 -12 -5z"/>
<path d="M6210 6486 c8 -7 243 -57 248 -52 2 2 -36 13 -85 24 -110 25 -170 35
-163 28z"/>
<path d="M5687 6404 c-13 -13 5 -24 36 -24 l32 0 -29 15 c-33 17 -31 17 -39 9z"/>
<path d="M4218 6393 c7 -3 16 -2 19 1 4 3 -2 6 -13 5 -11 0 -14 -3 -6 -6z"/>
<path d="M4945 6390 c-8 -13 5 -13 25 0 13 8 13 10 -2 10 -9 0 -20 -4 -23 -10z"/>
<path d="M5020 6017 c0 -11 168 -96 219 -111 113 -33 221 -13 366 70 63 35 73
44 45 38 -19 -3 -54 -15 -78 -25 -139 -60 -280 -64 -415 -11 -80 31 -137 47
-137 39z"/>
<path d="M6664 5520 c4 -14 15 -65 26 -114 20 -89 30 -116 30 -80 0 29 -39
184 -51 203 -8 13 -9 11 -5 -9z"/>
<path d="M4007 5276 c4 -96 30 -232 63 -339 21 -69 38 -91 20 -26 -13 43 -78
372 -84 419 -2 19 -2 -5 1 -54z"/>
<path d="M6631 5250 c-1 -63 -8 -158 -16 -210 -8 -52 -13 -96 -11 -98 2 -2 11
27 20 65 19 87 30 288 17 328 -7 23 -10 4 -10 -85z"/>
<path d="M5250 4882 c0 -15 11 -70 24 -122 14 -52 28 -126 32 -165 7 -63 8
-66 15 -35 3 19 9 89 12 155 l5 120 -17 -65 -17 -64 -23 102 c-13 56 -25 102
-27 102 -2 0 -4 -13 -4 -28z"/>
<path d="M5278 4225 c2 -104 8 -230 12 -280 6 -63 8 -16 5 155 -2 135 -8 261
-13 280 -6 22 -7 -33 -4 -155z"/>
<path d="M4412 4168 c27 -62 95 -223 149 -358 54 -135 99 -236 100 -225 0 11
11 -14 23 -55 32 -103 74 -217 75 -203 1 14 -101 350 -129 427 -31 82 -35 64
-5 -24 14 -41 24 -79 22 -84 -2 -5 -20 40 -41 100 -21 60 -53 147 -73 194 -39
94 -161 340 -168 340 -2 0 19 -51 47 -112z"/>
<path d="M6297 4188 c-155 -252 -267 -484 -338 -698 -21 -63 -38 -108 -38 -99
-1 9 4 30 10 48 6 18 9 34 6 38 -9 9 -76 -217 -103 -348 -14 -66 -23 -123 -22
-125 6 -6 80 249 80 273 0 13 4 21 8 18 12 -8 22 31 15 58 -4 15 -3 18 3 9 6
-10 18 14 39 80 74 226 200 492 373 781 12 20 20 37 17 37 -3 0 -25 -33 -50
-72z"/>
<path d="M5114 3665 c3 -11 12 -45 20 -75 8 -30 25 -104 36 -164 27 -134 42
-175 34 -91 -8 82 -48 251 -73 305 -12 25 -19 36 -17 25z"/>
<path d="M4711 3601 c-1 -14 122 -495 163 -641 43 -148 28 -50 -23 156 -77
312 -138 524 -140 485z"/>
<path d="M5387 3455 c-5 -91 -4 -141 8 -205 29 -162 43 -180 24 -30 -6 47 -14
146 -18 220 l-6 135 -8 -120z"/>
<path d="M5941 3504 c0 -11 3 -14 6 -6 3 7 2 16 -1 19 -3 4 -6 -2 -5 -13z"/>
<path d="M5396 2588 c-12 -176 -24 -812 -15 -828 5 -9 9 54 9 145 0 88 5 299
10 469 11 312 9 402 -4 214z"/>
<path d="M5317 2455 c2 -44 9 -120 13 -170 8 -82 8 -78 4 40 -3 72 -9 148 -14
170 -6 30 -7 21 -3 -40z"/>
<path d="M4837 1170 c-44 -11 -139 -51 -134 -56 2 -2 30 6 63 18 86 31 231 36
304 11 95 -34 97 -34 30 -1 -54 27 -78 32 -145 34 -44 2 -97 -1 -118 -6z"/>
<path d="M5688 1167 c-42 -12 -128 -60 -128 -72 0 -2 30 10 68 28 64 31 73 32
189 32 77 0 119 3 112 10 -15 15 -188 16 -241 2z"/>
<path d="M5980 1136 c0 -2 7 -7 16 -10 8 -3 12 -2 9 4 -6 10 -25 14 -25 6z"/>
<path d="M6938 3074 c-25 -358 -161 -688 -464 -1124 -111 -161 -155 -231 -167
-265 -5 -15 -3 -14 11 5 9 13 56 79 104 145 271 373 355 524 447 808 59 181
82 309 79 430 l-3 102 -7 -101z"/>
<path d="M3858 6473 c7 -3 16 -2 19 1 4 3 -2 6 -13 5 -11 0 -14 -3 -6 -6z"/>
<path d="M6835 6470 c11 -5 29 -8 40 -8 16 0 15 2 -5 8 -34 11 -60 11 -35 0z"/>
<path d="M3808 6463 c6 -2 18 -2 25 0 6 3 1 5 -13 5 -14 0 -19 -2 -12 -5z"/>
<path d="M3675 6437 c-44 -11 -75 -22 -70 -23 6 -2 51 7 100 20 50 13 81 24
70 24 -11 0 -56 -9 -100 -21z"/>
<path d="M6948 6443 c7 -3 16 -2 19 1 4 3 -2 6 -13 5 -11 0 -14 -3 -6 -6z"/>
<path d="M6988 6433 c7 -3 16 -2 19 1 4 3 -2 6 -13 5 -11 0 -14 -3 -6 -6z"/>
<path d="M7028 6423 c7 -3 16 -2 19 1 4 3 -2 6 -13 5 -11 0 -14 -3 -6 -6z"/>
<path d="M7075 6410 c11 -5 27 -9 35 -9 9 0 8 4 -5 9 -11 5 -27 9 -35 9 -9 0
-8 -4 5 -9z"/>
<path d="M3510 6390 c-30 -10 -50 -18 -45 -19 6 0 37 8 70 18 33 11 53 19 45
19 -8 1 -40 -7 -70 -18z"/>
<path d="M6664 6391 c4 -6 13 -11 20 -11 7 0 70 -16 141 -35 70 -19 130 -34
132 -32 2 2 -56 21 -129 41 -73 21 -141 40 -152 43 -12 3 -16 1 -12 -6z"/>
<path d="M3930 6380 c-14 -5 -78 -23 -143 -41 -65 -17 -116 -33 -114 -35 4 -4
309 75 316 82 8 7 -33 3 -59 -6z"/>
<path d="M7198 6373 c7 -3 16 -2 19 1 4 3 -2 6 -13 5 -11 0 -14 -3 -6 -6z"/>
<path d="M3415 6360 c-13 -6 -15 -9 -5 -9 8 0 22 4 30 9 18 12 2 12 -25 0z"/>
<path d="M6978 6303 c7 -3 16 -2 19 1 4 3 -2 6 -13 5 -11 0 -14 -3 -6 -6z"/>
<path d="M6510 6184 c0 -5 43 -56 95 -114 131 -143 216 -258 262 -351 21 -42
40 -76 42 -74 8 8 -83 174 -129 236 -76 101 -270 319 -270 303z"/>
</g>
</svg>
